<svg xmlns="http://www.w3.org/2000/svg" viewBox="0 0 843.35 845.7">
    <g id="Layer_2" data-name="Layer 2">
        <g id="Layer_1-2" data-name="Layer 1">
            <polygon points="256.74 611.59 267.91 611.59 262.32 590.28 256.74 611.59" fill="#377dff" style="isolation:isolate"/>
            <path d="M392.92,584.16h-7.06V602h6.86a6.34,6.34,0,0,0,5.42-2.41,10.45,10.45,0,0,0,1.8-6.42Q399.94,584.17,392.92,584.16Z" fill="#377dff" style="isolation:isolate"/>
            <path d="M595.25,584.16h-4.4v39.7h3.62q6,0,8.5-3.18t2.58-11V599.31q0-8.38-2.34-11.68T595.25,584.16Z" fill="#377dff" style="isolation:isolate"/>
            <path d="M688.3,0H422.85C187.93,0,0,190.28,0,422.85,0,657.76,187.93,845.7,422.85,845.7c232.56,0,420.5-187.94,420.5-422.85V155C843.35,70.47,775.22,0,688.3,0ZM192.12,608.67q0,11.79-6.22,18.49t-17.14,6.72H153.28V574.1h15.81q10.47,0,16.69,6.65T192.12,599Zm43,25.21H200.78V574.1H235v10.06H212.85v14.12h18.81V608H212.85v15.85H235.1Zm38.68,0-3.2-12.24H254.11l-3.2,12.24H238.14l18.68-59.78h11.05l18.8,59.78Zm51.73,0H292.25V574.1h12.07v49.76h21.19Zm41.3,0H332.49V574.1h34.24v10.06H344.56v14.12h18.8V608h-18.8v15.85h22.25Zm47,0h-13l-9-21.84h-6v21.84H373.79V574.1h19.26q9.07,0,14,4.7T412,592.16q0,11.91-8.66,16.67l10.47,24.47ZM290.29,526.17c-42.79.21-85.58-.21-128.35.51-10.71.18-13.52-2.67-13.57-13.37,0-27.41,0-85.63,0-112.67l.3.09c.13-54.64,0-109.32.07-164q0-13.26.05-26.5c0-5.3-2.21-12.06,7.6-11.8,50.83,1.29,102.11-4.89,152.42,2.72,78.24,11.85,126,67,131.87,146.49C449.52,445.34,382.86,524.8,290.29,526.17Zm163.15,68.36a22.7,22.7,0,0,0,7,4.12q8.74,3.17,12.71,7.76a17.31,17.31,0,0,1,4,11.7q0,7.8-5,12.2t-13.51,4.39a23.23,23.23,0,0,1-10.55-2.38,17.87,17.87,0,0,1-7.45-6.82A19.8,19.8,0,0,1,437.92,615H450q0,5.18,2,7.52t6.57,2.34q6.33,0,6.33-6.7a7.52,7.52,0,0,0-1.87-5.52,21.62,21.62,0,0,0-6.8-3.88q-9-3.4-12.93-8A16,16,0,0,1,439.4,590a15.13,15.13,0,0,1,5.36-12.13q5.36-4.58,13.61-4.58a20.34,20.34,0,0,1,9.81,2.32,16.15,16.15,0,0,1,6.63,6.55,19.6,19.6,0,0,1,2.32,9.6h-12c0-2.79-.59-4.92-1.79-6.38a6.26,6.26,0,0,0-5.15-2.2,6.44,6.44,0,0,0-4.92,1.87,7,7,0,0,0-1.77,5A6.23,6.23,0,0,0,453.44,594.53Zm70.37-10.37H509v49.72H496.92V584.16H482.39V574.1h41.42Zm45.82,31.32q-.09,9.33-5.13,14.27t-14.5,5q-9.6,0-14.67-5t-5.07-14.49V574.1h12.15v41.14q0,5.09,1.64,7.27t6,2.17q4.32,0,5.92-2.15t1.64-7.09V574.1h12.07Zm48-6.81q0,11.79-6.22,18.49t-17.14,6.72H578.78V574.1h15.81q10.47,0,16.69,6.65T617.62,599Zm21.27,25.21H626.82V574.1h12.07Zm52.22-24.51q0,12-5.68,18.68t-15.79,6.65q-10.07,0-15.8-6.59T648,609.66V599.43q0-12.31,5.7-19.23t15.85-6.92q10,0,15.72,6.79t5.83,19.07Zm-245-106.95c-9.58-6.94-12.85-14.2-3.67-25,10.47-12.26,15.37-28,23-45,31.63,64,163.77,66.17,165.93-.93-3.84-51.37-76.75-44.52-113.33-54.32-25.71-4.69-47.05-9.93-46-45.82C473,303,461,275.1,444.49,250.87c-5.52-8.13-3.58-13.12,2.11-19.5,49.3-55.49,164.37-56.09,216.21-3.83,24.78,25.87,21.8,26.23-8.74,41.24-36.81,27-42.45-51.09-138.57-18.38-36.37,12-36.74,59.65,1.85,68.68,55.62,17.05,129.58,6.15,163.28,64.22C745.68,523.8,539.76,577.15,446.14,502.42Z" fill="#377dff" style="isolation:isolate"/>
            <path d="M169.74,584.16h-4.39v39.7H169q6,0,8.5-3.18t2.59-11V599.31q0-8.38-2.34-11.68T169.74,584.16Z" fill="#377dff" style="isolation:isolate"/>
            <path d="M669.56,583.38a7.72,7.72,0,0,0-7.1,3.8q-2.31,3.8-2.38,11.55v10.64q0,7.85,2.34,11.55a7.92,7.92,0,0,0,7.22,3.72,7.73,7.73,0,0,0,7-3.63c1.53-2.43,2.32-6.18,2.34-11.27V599.35q0-8.08-2.3-12A7.68,7.68,0,0,0,669.56,583.38Z" fill="#377dff" style="isolation:isolate"/>
            <path d="M272.47,256.89c-16.77-.18-33.58.67-50.29-.27-11-.61-13.49,3.23-13.38,13.73.52,49.89-.1,99.8.49,149.69l.1,0v47.38c24.85,0,49.71.1,74.55-.4,62.41-1.27,98.38-48.95,96-107.6C377.14,292.44,339.44,257.62,272.47,256.89Z" fill="#377dff" style="isolation:isolate"/>
            <path d="M517.35,319.08c-38.59-9-38.22-56.67-1.85-68.68,96.12-32.71,101.76,45.39,138.57,18.38,30.54-15,33.52-15.37,8.74-41.24C611,175.28,495.9,175.88,446.6,231.37c-5.69,6.38-7.63,11.37-2.11,19.5C461,275.1,473,303,472.12,331.39c-1.08,35.89,20.26,41.13,46,45.82,36.58,9.8,109.49,3,113.33,54.32-2.16,67.1-134.3,65-165.93.93-7.65,17-12.55,32.74-23,45-9.18,10.76-5.91,18,3.67,25,93.62,74.73,299.54,21.38,234.49-119.12C646.93,325.23,573,336.13,517.35,319.08Z" fill="#fff"/>
            <path d="M440.7,347.67C434.8,268.2,387.07,213,308.83,201.18c-50.31-7.61-101.59-1.43-152.42-2.72-9.81-.26-7.58,6.5-7.6,11.8q0,13.25-.05,26.5c-.07,54.65.06,109.33-.07,164l-.3-.09c0,27,0,85.26,0,112.67,0,10.7,2.86,13.55,13.57,13.37,42.77-.72,85.56-.3,128.35-.51C382.86,524.8,449.52,445.34,440.7,347.67ZM283.94,467.05c-24.84.5-49.7.42-74.55.4V420.07l-.1,0c-.59-49.89,0-99.8-.49-149.69-.11-10.5,2.37-14.34,13.38-13.73,16.71.94,33.52.09,50.29.27,67,.73,104.67,35.55,107.43,102.56C382.32,418.1,346.35,465.78,283.94,467.05Z" fill="#fff"/>
            <path d="M169.09,574.1H153.28v59.78h15.48q10.92,0,17.14-6.72t6.22-18.49V599q-.12-11.58-6.34-18.23T169.09,574.1Zm11,35.6q-.12,7.8-2.59,11t-8.5,3.18h-3.61v-39.7h4.39q5.63.17,8,3.47t2.34,11.68Z" fill="#fff"/>
            <polygon points="212.85 608.01 231.66 608.01 231.66 598.28 212.85 598.28 212.85 584.16 235.02 584.16 235.02 574.1 200.78 574.1 200.78 633.88 235.1 633.88 235.1 623.86 212.85 623.86 212.85 608.01" fill="#fff"/>
            <path d="M256.82,574.1l-18.68,59.78h12.77l3.2-12.24h16.47l3.2,12.24h12.89l-18.8-59.78Zm-.08,37.48,5.58-21.3,5.59,21.3Z" fill="#fff"/>
            <polygon points="304.32 574.1 292.25 574.1 292.25 633.88 325.51 633.88 325.51 623.86 304.32 623.86 304.32 574.1" fill="#fff"/>
            <polygon points="344.56 608.01 363.36 608.01 363.36 598.28 344.56 598.28 344.56 584.16 366.73 584.16 366.73 574.1 332.49 574.1 332.49 633.88 366.81 633.88 366.81 623.86 344.56 623.86 344.56 608.01" fill="#fff"/>
            <path d="M412,592.16q0-8.65-4.94-13.36t-14-4.7H373.79v59.78h12.07V612h6l9,21.84h13v-.58l-10.47-24.47Q412,604.07,412,592.16Zm-13.87,7.41a6.34,6.34,0,0,1-5.42,2.41h-6.86V584.16h7.06q7,0,7,9A10.45,10.45,0,0,1,398.14,599.57Z" fill="#fff"/>
            <path d="M458.16,583.17a6.26,6.26,0,0,1,5.15,2.2c1.2,1.46,1.79,3.59,1.79,6.38h12a19.6,19.6,0,0,0-2.32-9.6,16.15,16.15,0,0,0-6.63-6.55,20.34,20.34,0,0,0-9.81-2.32q-8.25,0-13.61,4.58A15.13,15.13,0,0,0,439.4,590a16,16,0,0,0,3.94,10.82q3.95,4.58,12.93,8a21.62,21.62,0,0,1,6.8,3.88,7.52,7.52,0,0,1,1.87,5.52q0,6.7-6.33,6.7-4.55,0-6.57-2.34T450,615H437.92a19.8,19.8,0,0,0,2.69,10.47,17.87,17.87,0,0,0,7.45,6.82,23.23,23.23,0,0,0,10.55,2.38q8.55,0,13.51-4.39t5-12.2a17.31,17.31,0,0,0-4-11.7q-4-4.59-12.71-7.76a22.7,22.7,0,0,1-7-4.12,6.23,6.23,0,0,1-2-4.46,7,7,0,0,1,1.77-5A6.44,6.44,0,0,1,458.16,583.17Z" fill="#fff"/>
            <polygon points="482.38 584.16 496.92 584.16 496.92 633.88 509.03 633.88 509.03 584.16 523.81 584.16 523.81 574.1 482.38 574.1 482.38 584.16" fill="#fff"/>
            <path d="M557.56,615.44q0,4.93-1.64,7.09T550,624.68q-4.31,0-6-2.17t-1.64-7.27V574.1H530.26v41.1q0,9.48,5.07,14.49t14.67,5q9.45,0,14.5-5t5.13-14.27V574.1H557.56Z" fill="#fff"/>
            <path d="M594.59,574.1H578.78v59.78h15.48q10.92,0,17.14-6.72t6.22-18.49V599q-.12-11.58-6.34-18.23T594.59,574.1Zm11,35.6q-.12,7.8-2.58,11t-8.5,3.18h-3.62v-39.7h4.4q5.63.17,8,3.47t2.34,11.68Z" fill="#fff"/>
            <rect x="626.82" y="574.1" width="12.07" height="59.78" fill="#fff"/>
            <path d="M669.56,573.28q-10.14,0-15.85,6.92T648,599.43v10.23q.07,11.87,5.83,18.45t15.8,6.59q10.1,0,15.79-6.65t5.68-18.68V599.14q-.08-12.27-5.83-19.07T669.56,573.28ZM679,609.74c0,5.09-.81,8.84-2.34,11.27a7.73,7.73,0,0,1-7,3.63,7.92,7.92,0,0,1-7.22-3.72q-2.34-3.7-2.34-11.55V598.73q.07-7.76,2.38-11.55a8.49,8.49,0,0,1,14.24.14q2.31,3.95,2.3,12Z" fill="#fff"/>
        </g>
    </g>
</svg>